<?xml version="1.0" encoding="UTF-8" standalone="no"?>
<svg
   xmlns:dc="http://purl.org/dc/elements/1.1/"
   xmlns:cc="http://creativecommons.org/ns#"
   xmlns:rdf="http://www.w3.org/1999/02/22-rdf-syntax-ns#"
   xmlns:svg="http://www.w3.org/2000/svg"
   xmlns="http://www.w3.org/2000/svg"
   viewBox="0 0 933.20001 366.50668"
   height="366.50668"
   width="933.20001"
   xml:space="preserve"
   id="svg2"
   version="1.1"><metadata
     id="metadata8"><rdf:RDF><cc:Work
         rdf:about=""><dc:format>image/svg+xml</dc:format><dc:type
           rdf:resource="http://purl.org/dc/dcmitype/StillImage" /></cc:Work></rdf:RDF></metadata><defs
     id="defs6" /><g
     transform="matrix(1.3333333,0,0,-1.3333333,0,366.50667)"
     id="g10"><g
       transform="scale(0.1)"
       id="g12"><path
         id="path14"
         style="fill:#fff;fill-opacity:1;fill-rule:nonzero;stroke:none"
         d="m 1503.2,120.84 h -71.46 V 59.0586 h 73.45 c 27.31,0 43.76,9.6133 43.76,30.5 v 0.7812 c 0,18.9102 -14.05,30.5002 -45.75,30.5002 z m 30.11,81.941 c 0,18.438 -14.46,28.879 -40.55,28.879 h -61.02 v -59.422 h 57 c 27.31,0 44.57,8.813 44.57,29.703 z m -161.81,83.09 h 130.47 c 32.12,0 57.43,-8.883 73.49,-24.91 12.84,-12.852 19.26,-28.512 19.26,-47.742 v -0.828 c 0,-31.7 -16.86,-49.352 -36.94,-60.629 32.53,-12.43 52.61,-31.332 52.61,-69.0511 v -0.832 C 1610.39,30.5 1568.64,4.80078 1505.19,4.80078 H 1371.5 V 285.871" /><path
         id="path16"
         style="fill:#fff;fill-opacity:1;fill-rule:nonzero;stroke:none"
         d="m 1850.82,122.461 -37.34,91.129 -37.34,-91.129 z m -65.02,165.391 h 57 L 1963.23,4.80078 H 1898.6 L 1872.91,67.8398 H 1754.07 L 1728.38,4.80078 h -63.03 L 1785.8,287.852" /><path
         id="path18"
         style="fill:#fff;fill-opacity:1;fill-rule:nonzero;stroke:none"
         d="m 2145.48,144.129 c 30.91,0 48.99,18.453 48.99,42.57 v 0.832 c 0,27.641 -19.28,42.508 -50.2,42.508 h -47.78 v -85.91 z m -110.82,141.742 h 114.84 c 67.03,0 107.58,-39.75 107.58,-97.141 v -0.832 c 0,-65.07 -50.58,-98.7574 -113.61,-98.7574 h -46.98 V 4.80078 h -61.83 V 285.871" /><path
         id="path20"
         style="fill:#fff;fill-opacity:1;fill-rule:nonzero;stroke:none"
         d="m 2406.37,228.84 h -85.51 v 57.031 H 2553.7 V 228.84 h -85.52 V 4.80078 h -61.81 V 228.84" /><path
         id="path22"
         style="fill:#fff;fill-opacity:1;fill-rule:nonzero;stroke:none"
         d="m 2651.97,285.871 h 61.83 V 4.80078 h -61.83 V 285.871" /><path
         id="path24"
         style="fill:#fff;fill-opacity:1;fill-rule:nonzero;stroke:none"
         d="m 2812.9,45.75 36.53,43.8086 c 25.28,-20.8867 51.78,-34.1484 83.9,-34.1484 25.3,0 40.55,10.0312 40.55,26.4687 v 0.832 c 0,15.6289 -9.63,23.6681 -56.61,35.7301 -56.61,14.469 -93.14,30.09 -93.14,85.911 v 0.839 c 0,50.957 40.95,84.649 98.36,84.649 40.95,0 75.89,-12.852 104.37,-35.668 l -32.11,-46.582 c -24.89,17.269 -49.38,27.672 -73.06,27.672 -23.69,0 -36.14,-10.864 -36.14,-24.492 v -0.778 c 0,-18.492 12.06,-24.492 60.63,-36.972 57,-14.84 89.12,-35.309 89.12,-84.2895 v -0.7891 c 0,-55.7695 -42.54,-87.109369 -103.17,-87.109369 -42.56,0 -85.52,14.828169 -119.23,44.917969" /><path
         id="path26"
         style="fill:#fff;fill-opacity:1;fill-rule:nonzero;stroke:none"
         d="m 3196.62,228.84 h -85.51 v 57.031 h 232.84 V 228.84 h -85.51 V 4.80078 h -61.82 V 228.84" /><path
         id="path28"
         style="fill:#fff;fill-opacity:1;fill-rule:nonzero;stroke:none"
         d="m 3635.53,144.551 v 0.777 c 0,79.902 60.21,145.344 146.53,145.344 52.99,0 84.71,-17.652 110.8,-43.352 l -39.32,-45.379 c -21.7,19.688 -43.77,31.707 -71.89,31.707 -47.37,0 -81.49,-39.316 -81.49,-87.527 v -0.793 c 0,-48.1874 33.32,-88.3085 81.49,-88.3085 32.12,0 51.81,12.8516 73.87,32.9102 l 39.36,-39.7383 C 3865.97,19.3203 3833.85,0 3779.64,0 3696.95,0 3635.53,63.8711 3635.53,144.551" /><path
         id="path30"
         style="fill:#fff;fill-opacity:1;fill-rule:nonzero;stroke:none"
         d="m 4002.31,285.871 h 61.83 V 174.68 h 114.03 v 111.191 h 61.81 V 4.80078 h -61.81 V 117.66 H 4064.14 V 4.80078 h -61.83 V 285.871" /><path
         id="path32"
         style="fill:#fff;fill-opacity:1;fill-rule:nonzero;stroke:none"
         d="m 4351.08,125.23 v 160.641 h 61.82 v -158.98 c 0,-45.7894 22.88,-69.5004 60.64,-69.5004 37.73,0 60.6,22.918 60.6,67.4684 v 161.012 h 61.84 V 127.27 c 0,-85.1216 -47.76,-126.848125 -123.25,-126.848125 -75.49,0 -121.65,42.136725 -121.65,124.808125" /><path
         id="path34"
         style="fill:#fff;fill-opacity:1;fill-rule:nonzero;stroke:none"
         d="m 4831.55,149.359 c 30.1,0 47.36,16.082 47.36,39.743 v 0.828 c 0,26.492 -18.46,40.109 -48.57,40.109 h -61.44 v -80.68 z m -124.46,136.512 h 128.47 c 35.72,0 63.43,-10.082 81.89,-28.519 15.67,-15.661 24.08,-37.75 24.08,-64.231 v -0.789 c 0,-45.383 -24.48,-73.891 -60.22,-87.152 L 4949.96,4.80078 h -72.25 L 4817.49,94.7383 H 4768.9 V 4.80078 h -61.81 V 285.871" /><path
         id="path36"
         style="fill:#fff;fill-opacity:1;fill-rule:nonzero;stroke:none"
         d="m 5032.98,144.551 v 0.777 c 0,79.902 60.22,145.344 146.53,145.344 52.99,0 84.71,-17.652 110.8,-43.352 l -39.35,-45.379 c -21.67,19.688 -43.74,31.707 -71.86,31.707 -47.37,0 -81.49,-39.316 -81.49,-87.527 v -0.793 c 0,-48.1874 33.32,-88.3085 81.49,-88.3085 32.12,0 51.81,12.8516 73.87,32.9102 l 39.36,-39.7383 C 5263.42,19.3203 5231.3,0 5177.11,0 5094.4,0 5032.98,63.8711 5032.98,144.551" /><path
         id="path38"
         style="fill:#fff;fill-opacity:1;fill-rule:nonzero;stroke:none"
         d="m 5389.79,285.871 h 61.8 V 174.68 h 114.03 v 111.191 h 61.83 V 4.80078 h -61.83 V 117.66 H 5451.59 V 4.80078 h -61.8 V 285.871" /><path
         id="path40"
         style="fill:#ffffff;fill-opacity:1;fill-rule:nonzero;stroke:none"
         d="m 0.00390625,2255.8 v 2.68 c 0,269.56 203.19109375,490.36 494.42209375,490.36 178.82,0 285.82,-59.57 373.879,-146.26 l -132.746,-153.1 c -73.153,66.4 -147.672,106.98 -242.477,106.98 -159.848,0 -274.984,-132.73 -274.984,-295.3 v -2.68 c 0,-162.57 112.437,-298.02 274.984,-298.02 108.371,0 174.727,43.35 249.25,111.05 L 875.074,1937.45 C 777.539,1833.14 669.176,1768.07 486.293,1768.07 207.262,1768.07 0.00390625,1983.52 0.00390625,2255.8" /><path
         id="path42"
         style="fill:#ffffff;fill-opacity:1;fill-rule:nonzero;stroke:none"
         d="m 2057.55,2732.62 h 208.62 V 1974 h 472.76 v -189.66 h -681.38 v 948.28" /><path
         id="path44"
         style="fill:#ffffff;fill-opacity:1;fill-rule:nonzero;stroke:none"
         d="m 3535.37,2255.8 v 2.68 c 0,162.57 -119.18,297.98 -287.16,297.98 -167.98,0 -284.46,-132.73 -284.46,-295.3 v -2.68 c 0,-162.57 119.2,-298.02 287.16,-298.02 167.98,0 284.46,132.77 284.46,295.34 z m -789.72,0 v 2.68 c 0,269.56 212.67,490.36 505.26,490.36 292.6,0 502.56,-218.07 502.56,-487.68 v -2.68 c 0,-269.6 -212.67,-490.41 -505.26,-490.41 -292.59,0 -502.56,218.13 -502.56,487.73" /><path
         id="path46"
         style="fill:#ffffff;fill-opacity:1;fill-rule:nonzero;stroke:none"
         d="m 3884.83,2732.62 h 192.33 l 444.31,-583.85 v 583.85 h 205.9 v -948.28 h -177.46 l -459.2,602.8 v -602.8 h -205.88 v 948.28" /><path
         id="path48"
         style="fill:#ffffff;fill-opacity:1;fill-rule:nonzero;stroke:none"
         d="m 4910.21,2732.62 h 208.6 v -948.28 h -208.6 v 948.28" /><path
         id="path50"
         style="fill:#ffffff;fill-opacity:1;fill-rule:nonzero;stroke:none"
         d="m 5846.23,2181.26 -125.97,307.5 -126,-307.5 z m -219.43,558.1 h 192.33 l 406.39,-955.02 h -218.1 l -86.69,212.67 h -400.96 l -86.7,-212.67 H 5220.4 l 406.4,955.02" /><path
         id="path52"
         style="fill:#ffffff;fill-opacity:1;fill-rule:nonzero;stroke:none"
         d="M 6317.57,2732.62 H 6526.2 V 1974 h 472.75 v -189.66 h -681.38 v 948.28" /><path
         id="path54"
         style="fill:#ffffff;fill-opacity:1;fill-rule:nonzero;stroke:none"
         d="M 657.645,1558.64 H 866.246 V 1183.4 h 384.694 v 375.24 h 208.63 V 610.422 H 1250.94 V 991.059 H 866.246 V 610.422 H 657.645 v 948.218" /><path
         id="path56"
         style="fill:#ffffff;fill-opacity:1;fill-rule:nonzero;stroke:none"
         d="m 1632.91,1558.64 h 715.22 v -185.58 h -507.99 v -192.34 h 447.02 V 995.141 H 1840.14 V 796.012 h 514.76 v -185.59 h -721.99 v 948.218" /><path
         id="path58"
         style="fill:#ffffff;fill-opacity:1;fill-rule:nonzero;stroke:none"
         d="m 2495.76,1558.64 h 208.6 V 610.422 h -208.6 v 948.218" /><path
         id="path60"
         style="fill:#ffffff;fill-opacity:1;fill-rule:nonzero;stroke:none"
         d="m 2845.21,1081.83 v 2.68 c 0,269.6 209.97,490.4 497.13,490.4 170.69,0 273.65,-46.07 372.52,-130.04 l -131.38,-158.51 c -73.16,60.95 -138.17,96.17 -247.91,96.17 -151.71,0 -272.26,-134.11 -272.26,-295.29 v -2.73 c 0,-173.389 119.21,-300.701 287.17,-300.701 75.85,0 143.58,18.992 196.42,56.882 V 976.18 h -209.96 v 180.14 h 411.79 V 744.52 C 3651.2,661.891 3517.09,594.199 3343.7,594.199 c -295.29,0 -498.49,207.223 -498.49,487.631" /><path
         id="path62"
         style="fill:#ffffff;fill-opacity:1;fill-rule:nonzero;stroke:none"
         d="M 3894.99,1558.64 H 4103.6 V 1183.4 h 384.69 v 375.24 h 208.63 V 610.422 H 4488.29 V 991.059 H 4103.6 V 610.422 h -208.61 v 948.218" /><path
         id="path64"
         style="fill:#ffffff;fill-opacity:1;fill-rule:nonzero;stroke:none"
         d="m 5091.06,1366.31 h -288.53 v 192.33 h 785.68 V 1366.31 H 5299.68 V 610.422 h -208.62 v 755.888" /><path
         id="path66"
         style="fill:#ffffff;fill-opacity:1;fill-rule:nonzero;stroke:none"
         d="m 5608.5,748.59 123.24,147.648 c 85.35,-70.429 174.76,-115.168 283.13,-115.168 85.32,0 136.8,33.879 136.8,89.43 v 2.719 c 0,52.82 -32.51,79.902 -190.99,120.531 -191,48.8 -314.27,101.62 -314.27,289.93 v 2.68 c 0,172 138.17,285.82 331.87,285.82 138.18,0 256.02,-43.34 352.21,-120.56 L 6222.12,1294.5 c -83.98,58.22 -166.61,93.43 -246.54,93.43 -79.92,0 -121.91,-36.55 -121.91,-82.62 v -2.68 c 0,-62.29 40.62,-82.63 204.54,-124.64 192.36,-50.14 300.73,-119.17 300.73,-284.439 v -2.77 c 0,-188.261 -143.59,-293.91 -348.15,-293.91 -143.58,0 -288.52,50.098 -402.29,151.719" /><path
         id="path68"
         style="fill:#e54039;fill-opacity:1;fill-rule:nonzero;stroke:none"
         d="m 1479.04,1762.66 c 127.42,4.59 246.5,57.68 335.34,149.49 66.75,69 111.03,154.39 129.05,246.76 -23.31,-52.34 -58.15,-100.04 -103.62,-138.85 -20.52,-17.58 -43.44,-33.3 -68.06,-46.68 -57.88,-31.43 -123.03,-48.03 -188.42,-48.03 -46.31,0 -91.9,8.05 -135.5,23.94 -86.36,31.46 -159.3,92.44 -205.41,171.73 -0.56,0.88 -1.2,1.94 -1.88,3.24 -0.62,1.13 -1.24,2.24 -1.87,3.34 -0.73,1.29 -1.46,2.59 -2.19,3.92 l -0.12,0.21 -0.11,0.21 -3.64,6.97 -0.42,0.79 c -0.36,0.65 -0.69,1.3 -1.01,1.94 l -0.25,0.49 -0.34,0.61 -0.28,0.58 c -16.57,34.73 -24.98,71.86 -24.98,110.35 0,52.42 15.85,101.33 43.11,142.03 -5.76,-4.37 -11.41,-8.94 -16.9,-13.68 -78.19,-67.06 -123.01,-164.48 -123.01,-267.32 0,-22.66 2.1,-44.72 6.22,-65.59 14.44,-76.97 54.91,-147.77 113.99,-199.58 59.59,-52.26 135.98,-83.12 215.11,-86.91 6.14,-0.3 11.76,-0.45 17.19,-0.45 5.4,0 10.96,0.15 17.02,0.45 l 0.52,0.02 h 0.03 c 0.14,0 0.28,0.01 0.43,0.02" /><path
         id="path70"
         style="fill:#f0a038;fill-opacity:1;fill-rule:nonzero;stroke:none"
         d="m 1704.73,2680.59 c -73.81,42.25 -158.08,64.57 -243.69,64.57 -55.94,0 -111.38,-9.55 -163.68,-27.98 14.67,1.64 29.54,2.48 44.54,2.48 46.11,0 91.41,-8 134.66,-23.79 23.47,-8.52 46.17,-19.3 67.42,-32.04 97.12,-57.85 164.77,-154.83 185.55,-266.04 17.08,-90.89 1.6,-185.33 -43.6,-265.89 l -0.72,-1.27 c -1.5,-2.64 -3.04,-5.37 -4.77,-8.19 l -5.04,-8.14 -0.08,-0.14 -0.08,-0.12 c -0.35,-0.56 -0.7,-1.08 -1.04,-1.6 -0.25,-0.37 -0.49,-0.73 -0.74,-1.12 l -0.21,-0.34 -0.23,-0.34 c -47.71,-70.49 -126.96,-112.57 -211.98,-112.57 -8,0 -15.98,0.38 -23.91,1.13 8.23,-3.75 16.61,-7.18 25.14,-10.29 38.96,-14.19 79.69,-21.39 121.06,-21.39 58.38,0 116.57,14.84 168.28,42.91 22.03,11.98 42.48,26 60.79,41.68 119.65,102.15 156.97,273.22 90.84,416.09 -3.82,7.89 -7.11,14.41 -10.37,20.48 -4.25,7.84 -8.35,14.79 -12.47,21.13 l -0.15,0.24 -0.15,0.24 c -43.08,70.41 -103.72,129.3 -175.37,170.3" /><path
         id="path72"
         style="fill:#72b6b5;fill-opacity:1;fill-rule:nonzero;stroke:none"
         d="m 1107.79,1912.03 c 12.54,-12.96 25.69,-25.15 39.38,-36.54 -36.98,48.61 -62.54,105.48 -73.83,165.64 -4.62,23.35 -6.99,48.17 -6.99,73.57 0,115.16 50.19,224.25 137.68,299.3 67.37,58.12 153.6,91.82 242.79,94.86 4.65,0.27 9.43,0.41 14.22,0.41 4.9,0 9.79,-0.14 14.52,-0.43 96.18,-5.36 177.56,-63.66 216.5,-145.71 -0.98,8.99 -2.31,17.96 -3.99,26.89 -18.56,99.33 -78.96,185.93 -165.72,237.61 -18.99,11.38 -39.24,21 -60.22,28.61 -38.63,14.1 -79.07,21.24 -120.23,21.24 -120.6,0 -231.47,-60.41 -296.59,-161.6 l -0.13,-0.2 c -2.19,-3.41 -4.26,-6.63 -6.15,-9.87 l -0.14,-0.24 -0.15,-0.23 c -1.93,-3.12 -3.87,-6.52 -5.77,-10.09 l -0.13,-0.25 -0.14,-0.24 c -41.309,-73.19 -63.145,-156.56 -63.145,-241.09 0,-128.22 49.095,-249.55 138.235,-341.64" /><path
         id="path74"
         style="fill:#ffffff;fill-opacity:1;fill-rule:nonzero;stroke:none"
         d="m 1539.5,2332.52 h -60.16 v 68.9 h -45.7 v -68.9 h -60.17 v -45.69 h 60.17 v -180.91 h 45.7 v 180.91 h 60.16 v 45.69" /></g></g></svg>